<?xml version="1.0" encoding="utf-8"?>
<!-- Generator: Adobe Illustrator 21.1.0, SVG Export Plug-In . SVG Version: 6.00 Build 0)  -->
<svg version="1.1" id="Layer_1" xmlns="http://www.w3.org/2000/svg" xmlns:xlink="http://www.w3.org/1999/xlink" x="0px" y="0px"
	 viewBox="0 0 57 71.6" style="enable-background:new 0 0 57 71.6;" xml:space="preserve">
<style type="text/css">
	.st0{fill:none;}
</style>
<title>Artboard 57</title>
<path class="st0" d="M28.5,56c-6.4,0-12.4-3-16.2-8.1v12.4c0,0.1,0.1,0.2,0.2,0.2h32c0.1,0,0.2-0.1,0.2-0.2V47.8
	C40.9,52.9,34.9,55.9,28.5,56z M13.4,53.2c-0.1,0.1-0.1,0.1-0.2,0.1s-0.2,0-0.2-0.1l-0.1-0.1c-0.1-0.1-0.1-0.3,0-0.4
	c0.1-0.1,0.3-0.1,0.4,0l0.1,0.1C13.5,52.9,13.5,53,13.4,53.2L13.4,53.2z M14.9,54.4c-0.1,0.1-0.1,0.1-0.2,0.1s-0.2,0-0.2-0.1
	l-0.1-0.1c-0.1-0.1-0.1-0.3,0-0.4s0.3-0.1,0.4,0l0.1,0.1C15,54.1,15,54.3,14.9,54.4L14.9,54.4z M16.5,55.5c-0.1,0.1-0.2,0.1-0.3,0.1
	s-0.1,0-0.2,0l-0.1-0.1c-0.1-0.1-0.2-0.3-0.1-0.4c0.1-0.1,0.3-0.2,0.4-0.1l0.1,0.1C16.6,55.1,16.6,55.3,16.5,55.5z M18.2,56.4
	c-0.1,0.1-0.2,0.2-0.3,0.2h-0.1l-0.1-0.1c-0.2-0.1-0.2-0.3-0.1-0.4l0,0c0.1-0.1,0.3-0.2,0.4-0.1l0.1,0.1
	C18.3,56.1,18.3,56.3,18.2,56.4L18.2,56.4L18.2,56.4z M19.7,57.4L19.7,57.4h-0.2c-0.2-0.1-0.2-0.2-0.2-0.4c0.1-0.2,0.2-0.2,0.4-0.2
	l0,0h0.1C20,56.9,20,57,20,57.2C20,57.3,19.9,57.4,19.7,57.4L19.7,57.4z M21.6,58.1C21.6,58.1,21.5,58.1,21.6,58.1L21.4,58
	c-0.2-0.1-0.3-0.2-0.2-0.4c0.1-0.2,0.2-0.3,0.4-0.2l0,0h0.1c0.2,0,0.3,0.2,0.2,0.4C21.8,58,21.7,58.1,21.6,58.1L21.6,58.1z
	 M23.5,58.6C23.5,58.6,23.4,58.6,23.5,58.6h-0.2c-0.2,0-0.3-0.2-0.2-0.4l0,0c0-0.2,0.2-0.3,0.4-0.2l0,0h0.1c0.2,0,0.3,0.2,0.2,0.4
	C23.8,58.5,23.6,58.6,23.5,58.6L23.5,58.6z M25.4,58.9L25.4,58.9h-0.2c-0.2,0-0.3-0.2-0.3-0.3c0-0.2,0.2-0.3,0.3-0.3l0,0h0.1
	c0.2,0,0.3,0.2,0.3,0.3C25.7,58.8,25.6,58.9,25.4,58.9z M27.4,59.1L27.4,59.1L27.4,59.1c-0.3,0-0.4-0.2-0.4-0.3
	c0-0.2,0.1-0.3,0.3-0.3l0,0h0.1c0.2,0,0.3,0.2,0.3,0.3C27.7,59,27.5,59.1,27.4,59.1L27.4,59.1z M29.3,59.1L29.3,59.1L29.3,59.1
	c-0.3,0-0.4-0.1-0.4-0.3c0-0.2,0.1-0.3,0.3-0.3h0.1l0,0c0.2,0,0.3,0.1,0.3,0.3C29.6,59,29.5,59.1,29.3,59.1L29.3,59.1z M31.3,59
	L31.3,59c-0.1,0-0.1,0-0.2,0c-0.2,0-0.3-0.1-0.3-0.3c0-0.1,0.1-0.3,0.2-0.3h0.1c0.2,0,0.3,0.1,0.4,0.2l0,0
	C31.6,58.8,31.5,58.9,31.3,59L31.3,59L31.3,59z M33.3,58.6L33.3,58.6c-0.1,0-0.1,0-0.2,0c-0.2,0-0.3-0.1-0.3-0.3
	c0-0.1,0.1-0.3,0.2-0.3h0.1c0.2,0,0.3,0.1,0.4,0.2l0,0C33.6,58.4,33.5,58.6,33.3,58.6L33.3,58.6L33.3,58.6z M35.2,58.2L35.2,58.2H35
	c-0.2,0-0.3-0.1-0.3-0.3c0-0.1,0.1-0.3,0.2-0.3H35c0.2-0.1,0.3,0,0.4,0.2C35.5,57.9,35.4,58.1,35.2,58.2L35.2,58.2L35.2,58.2z
	 M37.1,57.5L37.1,57.5h-0.2c-0.2,0-0.3-0.1-0.3-0.3c0-0.1,0.1-0.2,0.2-0.3h0.1c0.2-0.1,0.3,0,0.4,0.2S37.3,57.4,37.1,57.5L37.1,57.5
	L37.1,57.5z M38.9,56.7L38.9,56.7c-0.3,0.1-0.4,0-0.5-0.1c-0.1-0.2,0-0.3,0.1-0.4l0.1-0.1c0.2-0.1,0.3,0,0.4,0.2
	C39.1,56.4,39.1,56.6,38.9,56.7L38.9,56.7z M40.7,55.7l-0.1,0.1c-0.1,0.1-0.3,0-0.4-0.1c-0.1-0.1,0-0.3,0.1-0.4l0.1-0.1
	c0.1-0.1,0.3,0,0.4,0.1C40.8,55.4,40.8,55.6,40.7,55.7L40.7,55.7L40.7,55.7z M42.3,54.6L42.3,54.6c-0.1,0.1-0.2,0.1-0.3,0.1
	c-0.2,0-0.3-0.1-0.3-0.3c0-0.1,0-0.2,0.1-0.2l0.1-0.1c0.1-0.1,0.3-0.1,0.4,0.1C42.5,54.3,42.4,54.5,42.3,54.6z M43.4,53L43.4,53
	c0.2-0.2,0.4-0.2,0.5-0.1s0.1,0.3,0,0.4l-0.1,0.1c-0.1,0.1-0.1,0.1-0.2,0.1c-0.2,0-0.3-0.1-0.3-0.3C43.3,53.1,43.3,53,43.4,53z"/>
<path class="st0" d="M28.5,30.4c-3,0-5.4,2.4-5.4,5.4s2.4,5.4,5.4,5.4s5.4-2.4,5.4-5.4l0,0C33.9,32.8,31.5,30.4,28.5,30.4z
	 M25.2,34.7c0-0.1,0.2-0.2,0.3-0.2s0.2,0.2,0.2,0.3l0,0v0.1c0,0.1-0.1,0.2-0.2,0.2c0,0,0,0-0.1,0C25.2,35.1,25.1,35,25.2,34.7
	C25.1,34.8,25.1,34.8,25.2,34.7L25.2,34.7z M25,35.8c0-0.1,0.1-0.2,0.2-0.2s0.3,0.1,0.3,0.2v0.1L25,35.8L25,35.8z M25.7,37.6
	c-0.1,0.1-0.3,0-0.3-0.1l0,0v-0.1c-0.1-0.1,0-0.3,0.1-0.3s0.3,0,0.3,0.1v0.1C25.9,37.3,25.9,37.5,25.7,37.6L25.7,37.6z M25.9,33.8
	c-0.1-0.1-0.1-0.3,0-0.4l0,0l0.1-0.1c0.1-0.1,0.3-0.1,0.4,0c0.1,0.1,0.1,0.3,0,0.3l-0.1,0.2c0,0.1-0.1,0.1-0.2,0.1
	C26,33.9,26,33.8,25.9,33.8L25.9,33.8z M26.8,38.6c0,0.1-0.1,0.1-0.2,0.1c-0.1,0-0.1,0-0.1,0l-0.1-0.1c-0.1-0.1-0.1-0.2,0-0.4
	s0.2-0.1,0.4,0l0.1,0.1C26.9,38.3,26.9,38.5,26.8,38.6L26.8,38.6z M27.4,33C27.4,33,27.3,33,27.4,33c-0.2,0-0.3-0.1-0.3-0.2
	c0-0.1,0.1-0.2,0.2-0.2h0.1c0.1,0,0.3,0,0.3,0.2C27.7,32.8,27.6,32.9,27.4,33L27.4,33z M28,39.3C28,39.3,27.9,39.3,28,39.3L28,39.3
	c-0.2,0-0.3-0.2-0.3-0.3s0.1-0.2,0.3-0.2l0,0h0.1c0.1,0,0.2,0.2,0.2,0.3C28.2,39.2,28.1,39.3,28,39.3L28,39.3z M28.9,32.8L28.9,32.8
	L28.9,32.8l-0.1-0.5h0.1c0.1,0,0.2,0.1,0.2,0.3C29.1,32.7,29,32.8,28.9,32.8L28.9,32.8z M29.5,39.2L29.5,39.2c-0.2,0-0.4,0-0.4-0.2
	c0-0.1,0-0.3,0.2-0.3h0.1c0.1,0,0.3,0,0.3,0.2S29.7,39.1,29.5,39.2L29.5,39.2z M30.1,33.3L30.1,33.3c-0.2-0.1-0.2-0.3-0.2-0.4
	c0.1-0.1,0.2-0.2,0.3-0.1l0,0l0.1,0.1c0.1,0.1,0.1,0.2,0.1,0.3S30.3,33.3,30.1,33.3C30.2,33.3,30.2,33.3,30.1,33.3L30.1,33.3z
	 M30.9,38.4L30.9,38.4c-0.2,0.2-0.3,0.2-0.4,0c-0.1-0.1-0.1-0.3,0-0.4l0.1-0.1c0.1-0.1,0.3-0.1,0.4,0C31,38.1,31,38.3,30.9,38.4
	L30.9,38.4L30.9,38.4z M31,34.2c-0.1-0.1,0-0.3,0.1-0.3c0.1-0.1,0.3,0,0.3,0.1l0,0l0.1,0.1c0.1,0.1,0,0.3-0.1,0.3h-0.1
	C31.2,34.4,31.1,34.3,31,34.2L31,34.2z M31.8,37.1c0,0.1-0.1,0.2-0.2,0.2h-0.1c-0.1-0.1-0.2-0.2-0.1-0.3l0,0v-0.1
	c0-0.1,0.2-0.2,0.3-0.1l0,0C31.8,36.7,31.8,36.9,31.8,37.1L31.8,37.1z M31.8,35.8L31.8,35.8c-0.2,0-0.3-0.1-0.3-0.2v-0.1
	c0-0.1,0.1-0.3,0.2-0.3c0.1,0,0.3,0.1,0.3,0.2v0.1C32,35.7,31.9,35.8,31.8,35.8L31.8,35.8z"/>
<path class="st0" d="M28.5,16.1c-6.4,0-12.5,3.2-16.2,8.5V47c6.2,8.9,18.4,11.1,27.3,5c1.9-1.3,3.6-3,5-5V24.6l-0.1-0.2
	C40.8,19.2,34.9,16.2,28.5,16.1z M28.5,41.7c-3.3,0-5.9-2.6-5.9-5.9s2.6-5.9,5.9-5.9s5.9,2.6,5.9,5.9l0,0
	C34.4,39.1,31.8,41.7,28.5,41.7z"/>
<circle class="st0" cx="28.7" cy="66.1" r="3.4"/>
<path class="st0" d="M44.5,11.2h-32c-0.1,0-0.2,0.1-0.2,0.2v12.4c6.7-9,19.3-10.8,28.2-4.2c1.6,1.2,3,2.6,4.1,4.1V11.4
	C44.7,11.3,44.6,11.2,44.5,11.2z M13.4,18.8L13.4,18.8c-0.2,0.2-0.4,0.2-0.5,0c-0.1-0.1-0.1-0.3,0-0.4l0.1-0.1
	c0.1-0.1,0.3-0.1,0.4,0C13.6,18.5,13.6,18.7,13.4,18.8L13.4,18.8z M15,17.6L15,17.6c-0.2,0.1-0.2,0.1-0.3,0.1
	c-0.2,0-0.3-0.1-0.3-0.3c0-0.1,0-0.2,0.1-0.2l0.1-0.1c0.1-0.1,0.3-0.1,0.4,0.1C15.1,17.3,15.1,17.5,15,17.6L15,17.6z M16.5,16.5
	L16.5,16.5c-0.2,0.1-0.2,0.1-0.3,0.1c-0.2,0-0.3-0.1-0.3-0.3c0-0.1,0-0.2,0.1-0.2l0.1-0.1c0.1-0.1,0.3-0.1,0.4,0.1
	C16.6,16.2,16.6,16.4,16.5,16.5L16.5,16.5L16.5,16.5z M18.2,15.5l-0.1,0.1H18c-0.2,0-0.3-0.1-0.3-0.3c0-0.1,0.1-0.2,0.2-0.3l0.1-0.1
	c0.2-0.1,0.3,0,0.4,0.1C18.5,15.3,18.4,15.4,18.2,15.5L18.2,15.5z M20,14.7L20,14.7h-0.2c-0.2,0-0.3-0.1-0.3-0.3
	c0-0.1,0.1-0.2,0.2-0.3l0.1-0.1c0.2-0.1,0.3,0,0.4,0.2C20.2,14.5,20.2,14.7,20,14.7L20,14.7z M21.8,14.1L21.8,14.1h-0.2
	c-0.2,0-0.3-0.1-0.3-0.3c0-0.1,0.1-0.3,0.2-0.3h0.1c0.2-0.1,0.3,0,0.4,0.2C22.1,13.8,22,14,21.8,14.1z M23.7,13.6L23.7,13.6
	c-0.1,0-0.1,0-0.2,0c-0.2,0-0.3-0.1-0.3-0.3c0-0.1,0.1-0.3,0.2-0.3h0.1c0.2,0,0.3,0.1,0.4,0.2C24,13.4,23.9,13.5,23.7,13.6
	L23.7,13.6L23.7,13.6z M25.6,13.3L25.6,13.3L25.6,13.3c-0.3,0-0.4-0.1-0.4-0.3c0-0.2,0.1-0.3,0.3-0.3h0.1c0.2,0,0.3,0.1,0.3,0.3
	C25.9,13.1,25.8,13.2,25.6,13.3L25.6,13.3L25.6,13.3z M27.5,13.1L27.5,13.1L27.5,13.1c-0.3,0-0.4-0.1-0.4-0.3c0-0.2,0.1-0.3,0.3-0.3
	h0.1c0.2,0,0.3,0.1,0.3,0.3C27.8,12.9,27.7,13.1,27.5,13.1L27.5,13.1z M29.5,13.1L29.5,13.1L29.5,13.1c-0.3,0-0.4-0.2-0.4-0.3
	c0-0.2,0.1-0.3,0.3-0.3l0,0h0.1c0.2,0,0.3,0.2,0.3,0.3C29.8,13,29.7,13.1,29.5,13.1z M31.4,13.3L31.4,13.3L31.4,13.3
	c-0.3,0-0.4-0.2-0.4-0.3c0-0.2,0.2-0.3,0.3-0.3l0,0h0.1c0.2,0,0.3,0.2,0.3,0.3C31.7,13.2,31.6,13.3,31.4,13.3L31.4,13.3z M33.4,13.6
	C33.4,13.6,33.3,13.6,33.4,13.6h-0.2c-0.2,0-0.3-0.2-0.2-0.4l0,0c0-0.2,0.2-0.3,0.3-0.2l0,0h0.1c0.2,0,0.3,0.2,0.2,0.4
	C33.6,13.5,33.5,13.6,33.4,13.6L33.4,13.6z M35.3,14.1C35.2,14.1,35.2,14.1,35.3,14.1L35.1,14c-0.2-0.1-0.2-0.2-0.2-0.4
	s0.2-0.2,0.4-0.2l0,0h0.1c0.2,0,0.3,0.2,0.2,0.4C35.5,14,35.4,14.1,35.3,14.1z M37.1,14.7L37.1,14.7h-0.2c-0.2-0.1-0.2-0.2-0.2-0.4
	c0.1-0.2,0.2-0.2,0.4-0.2h0.1c0.2,0.1,0.2,0.2,0.2,0.4C37.4,14.7,37.3,14.7,37.1,14.7L37.1,14.7z M39.2,15.4
	c-0.1,0.1-0.2,0.2-0.3,0.2h-0.1l-0.1-0.1c-0.2-0.1-0.2-0.3-0.2-0.4c0.1-0.2,0.3-0.2,0.4-0.1l0,0l0.1,0.1
	C39.2,15.1,39.3,15.2,39.2,15.4L39.2,15.4L39.2,15.4z M40.9,16.4c-0.1,0.1-0.2,0.1-0.3,0.1s-0.1,0-0.2,0l-0.1-0.1
	c-0.1-0.1-0.2-0.3-0.1-0.4c0.1-0.1,0.3-0.2,0.4-0.1l0.1,0.1C40.9,16,41,16.2,40.9,16.4L40.9,16.4z M42.5,17.5
	c-0.1,0.1-0.2,0.1-0.3,0.1s-0.1,0-0.2-0.1l-0.1-0.1c-0.1-0.1-0.2-0.3-0.1-0.4c0.1-0.1,0.3-0.2,0.4-0.1l0,0l0.1,0.1
	C42.6,17.2,42.6,17.4,42.5,17.5L42.5,17.5z M44,18.8c-0.1,0.1-0.3,0.1-0.4,0l0,0l-0.1-0.1c-0.1-0.1-0.1-0.3,0-0.4
	c0.1-0.1,0.3-0.1,0.4,0l0,0l0.1,0.1C44.1,18.4,44.1,18.6,44,18.8L44,18.8L44,18.8z"/>
<path class="st0" d="M10.4,35.6v-7.5c-1,2.4-1.6,4.9-1.6,7.5H10.4z"/>
<path class="st0" d="M10.4,43.5V36H8.8C8.9,38.6,9.4,41.2,10.4,43.5z"/>
<path class="st0" d="M20.6,5.5h0.2c0.1,0,0.2,0.1,0.2,0.2v0.2c0,0.1-0.1,0.2-0.2,0.2h-0.2c-0.1,0-0.2-0.1-0.2-0.2V5.7
	C20.4,5.6,20.5,5.5,20.6,5.5z"/>
<path class="st0" d="M25.2,5.5h7.2c0.1,0,0.2,0.1,0.2,0.2v0.2c0,0.1-0.1,0.2-0.2,0.2h-7.2C25.1,6.1,25,6,25,5.9V5.7
	C25.1,5.6,25.1,5.5,25.2,5.5z"/>
<path class="st0" d="M46.6,35.6h1.6c0-2.6-0.6-5.1-1.6-7.5V35.6z"/>
<path class="st0" d="M46.6,43.5c1-2.4,1.6-4.9,1.6-7.5h-1.6V43.5z"/>
<path class="st0" d="M42.4,0.5H14.6c-2,0-3.7,1.6-3.7,3.7v63.3c0,2,1.6,3.7,3.7,3.7h27.8c2,0,3.7-1.6,3.7-3.7V4.2
	C46.1,2.1,44.4,0.5,42.4,0.5z M24.6,5.7c0-0.4,0.3-0.7,0.7-0.7h7.2c0.4,0,0.7,0.3,0.7,0.7v0.2c0,0.4-0.3,0.7-0.7,0.7h-7.2
	c-0.4,0-0.7-0.3-0.7-0.7V5.7z M19.9,5.7c0-0.4,0.3-0.7,0.7-0.7h0.2c0.4,0,0.7,0.3,0.7,0.7v0.2c0,0.4-0.3,0.7-0.7,0.7h-0.2
	c-0.4,0-0.7-0.3-0.7-0.7V5.7z M28.7,70c-2.2,0-3.9-1.8-3.9-3.9c0-2.1,1.8-3.9,3.9-3.9c2.2,0,3.9,1.8,3.9,3.9l0,0
	C32.6,68.3,30.9,70,28.7,70z M45.2,60.2c0,0.4-0.3,0.7-0.7,0.7h-32c-0.4,0-0.7-0.3-0.7-0.7V47.1c0-0.1,0-0.1,0-0.2V11.4
	c0-0.4,0.3-0.7,0.7-0.7h32c0.4,0,0.7,0.3,0.7,0.7V60.2z"/>
<path d="M5.9,30L5.9,30c0,0.3,0.1,0.4,0.2,0.5l0,0c0,0,0,0,0.1,0s0.3-0.1,0.3-0.2v-0.1c0-0.2-0.1-0.3-0.2-0.4
	C6.1,29.7,5.9,29.8,5.9,30z"/>
<path d="M6.7,43.5C6.8,43.5,6.8,43.5,6.7,43.5c0.2,0,0.3-0.2,0.3-0.4V43c0-0.2-0.2-0.3-0.4-0.2S6.3,43,6.4,43.2l0,0v0.1
	C6.5,43.4,6.6,43.5,6.7,43.5z"/>
<path d="M6.7,28.6c0.1,0,0.3-0.1,0.3-0.2v-0.1c0.1-0.2,0-0.3-0.2-0.4c-0.2-0.1-0.3,0-0.4,0.2v0.1C6.4,28.4,6.5,28.6,6.7,28.6
	C6.6,28.6,6.6,28.6,6.7,28.6C6.6,28.6,6.7,28.6,6.7,28.6z"/>
<path d="M7.7,26.6l0.1-0.1c0.1-0.2,0-0.3-0.2-0.4c-0.2-0.1-0.3,0-0.4,0.2v0.1c-0.1,0.2,0,0.3,0.2,0.4h0.1
	C7.5,26.8,7.7,26.7,7.7,26.6z"/>
<path d="M6.1,41.7C6.2,41.7,6.2,41.7,6.1,41.7c0.2,0,0.3-0.2,0.3-0.4v-0.1C6.4,41,6.2,40.9,6,41c-0.2,0-0.3,0.2-0.2,0.4v0.1
	C5.9,41.6,6,41.7,6.1,41.7z"/>
<path d="M5.5,32L5.5,32c0,0.3,0.1,0.4,0.3,0.5l0,0c0.2,0,0.3-0.1,0.3-0.3v-0.1c0-0.2-0.1-0.3-0.3-0.4S5.5,31.8,5.5,32L5.5,32z"/>
<path d="M49.2,45.2L49.2,45.2c-0.1,0.3,0,0.4,0.1,0.5l0,0h0.1c0.1,0,0.2-0.1,0.3-0.2l0.1-0.1c0.1-0.2,0-0.3-0.2-0.4
	C49.4,45,49.3,45.1,49.2,45.2L49.2,45.2z"/>
<path d="M9.1,48.2C9,48.3,8.9,48.5,9,48.6l0.1,0.1c0.1,0.1,0.3,0.2,0.4,0.1s0.2-0.3,0.1-0.4l-0.1-0.2C9.4,48.1,9.2,48.1,9.1,48.2z"
	/>
<path d="M8.1,46.5C8,46.6,7.9,46.8,8,46.9L8.1,47c0.1,0.1,0.3,0.2,0.4,0.1c0.1-0.1,0.2-0.3,0.1-0.4l-0.1-0.1
	C8.4,46.4,8.2,46.4,8.1,46.5z"/>
<path d="M5.2,33.9L5.2,33.9c0,0.3,0.1,0.4,0.3,0.4l0,0c0.2,0,0.3-0.1,0.3-0.3v-0.1c0-0.2-0.1-0.3-0.3-0.3
	C5.4,33.6,5.3,33.8,5.2,33.9z"/>
<path d="M47.3,48.6L47.3,48.6c-0.2,0.2-0.1,0.4,0,0.5s0.3,0.1,0.4-0.1l0.1-0.1c0.1-0.1,0.1-0.3-0.1-0.4l0,0
	C47.6,48.4,47.4,48.4,47.3,48.6z"/>
<path d="M7.2,44.7C7,44.8,7,44.9,7,45.1l0,0l0.1,0.1c0,0.1,0.2,0.2,0.3,0.2h0.1c0.2-0.1,0.2-0.3,0.2-0.4v-0.1
	C7.6,44.7,7.4,44.6,7.2,44.7L7.2,44.7z"/>
<path d="M5.6,37.8c0.2,0,0.3-0.2,0.3-0.3v-0.1c0-0.2-0.1-0.3-0.3-0.3l0,0c-0.2,0-0.3,0.2-0.3,0.3v0.1C5.2,37.7,5.4,37.8,5.6,37.8
	C5.5,37.8,5.5,37.8,5.6,37.8z"/>
<path d="M5.7,39.7C5.8,39.7,5.8,39.7,5.7,39.7c0.2,0,0.3-0.2,0.3-0.3v-0.1C6,39.1,5.8,39,5.7,39l0,0c-0.2,0-0.3,0.2-0.3,0.3l0,0v0.1
	C5.5,39.6,5.6,39.7,5.7,39.7z"/>
<path d="M48.3,46.9L48.3,46.9c-0.2,0.2-0.1,0.4,0,0.5c0.1,0.1,0.3,0,0.4-0.1l0,0l0.1-0.1c0.1-0.1,0-0.3-0.1-0.4
	C48.6,46.7,48.4,46.8,48.3,46.9L48.3,46.9L48.3,46.9z"/>
<path d="M18,15l-0.1,0.1c-0.2,0.1-0.2,0.3-0.1,0.4c0.1,0.1,0.2,0.2,0.3,0.2h0.1l0.1-0.1c0.2-0.1,0.2-0.3,0.1-0.4
	C18.3,15,18.1,14.9,18,15L18,15z"/>
<path d="M51.2,31.6c-0.2,0-0.3,0.2-0.3,0.4v0.1c0,0.1,0.1,0.3,0.3,0.3c0,0,0,0,0.1,0c0.2,0,0.3-0.2,0.3-0.3l0,0V32
	C51.5,31.7,51.3,31.6,51.2,31.6L51.2,31.6z"/>
<path d="M49.5,26.7L49.5,26.7c0.3-0.1,0.3-0.3,0.2-0.4l0,0v-0.1C49.6,26,49.5,26,49.3,26c-0.2,0.1-0.2,0.2-0.2,0.4l0,0l0.1,0.1
	C49.3,26.6,49.4,26.7,49.5,26.7z"/>
<path d="M48.7,25c0.1,0,0.1,0,0.2,0c0.1-0.1,0.2-0.3,0.1-0.4l-0.1-0.1c-0.1-0.1-0.3-0.2-0.4-0.1l0,0c-0.1,0.1-0.2,0.3-0.1,0.4
	l0.1,0.1C48.4,24.9,48.5,25,48.7,25z"/>
<path d="M51.1,33.9L51.1,33.9c0,0.3,0.1,0.4,0.3,0.4l0,0c0.2,0,0.3-0.2,0.3-0.3v-0.1c0-0.2-0.2-0.3-0.3-0.3
	C51.3,33.6,51.1,33.7,51.1,33.9L51.1,33.9z"/>
<path d="M47.6,23.3c0.1,0,0.1,0,0.2-0.1s0.2-0.3,0.1-0.4l-0.1-0.1c-0.1-0.1-0.3-0.2-0.4-0.1c-0.1,0.1-0.2,0.3-0.1,0.4l0.1,0.1
	C47.4,23.2,47.5,23.3,47.6,23.3z"/>
<path d="M50.7,29.7c-0.2,0-0.3,0.2-0.2,0.4l0,0v0.1c0,0.2,0.2,0.3,0.4,0.2c0.2,0,0.3-0.2,0.2-0.4v-0.1C51,29.8,50.9,29.7,50.7,29.7z
	"/>
<path d="M23.6,13L23.6,13c-0.3,0-0.4,0.2-0.3,0.4c0,0.1,0.2,0.2,0.3,0.2c0,0,0,0,0.1,0h0.1c0.2,0,0.3-0.2,0.2-0.4
	C23.9,13,23.7,12.9,23.6,13L23.6,13L23.6,13z"/>
<path d="M14.6,17.1L14.6,17.1c-0.2,0.2-0.3,0.4-0.2,0.5c0.1,0.1,0.3,0.2,0.4,0.1l0.1-0.1c0.1-0.1,0.2-0.3,0.1-0.4
	C14.9,17,14.7,17,14.6,17.1L14.6,17.1z"/>
<path d="M13,18.3L13,18.3c-0.2,0.2-0.2,0.4-0.1,0.5c0.1,0.1,0.3,0.1,0.4,0l0.1-0.1c0.1-0.1,0.1-0.3,0-0.4
	C13.4,18.2,13.2,18.2,13,18.3L13,18.3z"/>
<path d="M16.1,16L16.1,16c-0.2,0.2-0.3,0.4-0.2,0.5c0.1,0.1,0.3,0.2,0.4,0.1l0.1-0.1c0.1-0.1,0.2-0.3,0.1-0.4
	C16.4,15.9,16.2,15.9,16.1,16z"/>
<path d="M9.6,23.2l0.1-0.1c0.1-0.1,0-0.3-0.1-0.4c-0.1-0.1-0.3,0-0.4,0.1l0,0l-0.1,0.1c-0.1,0.1,0,0.3,0.1,0.4
	C9.3,23.4,9.5,23.4,9.6,23.2z"/>
<path d="M19.8,14.1l-0.1,0.1c-0.2,0.1-0.2,0.2-0.2,0.4c0,0.1,0.2,0.2,0.3,0.2h0.1H20c0.2-0.1,0.2-0.2,0.2-0.4
	C20.1,14.2,19.9,14.1,19.8,14.1L19.8,14.1z"/>
<path d="M21.7,13.5L21.7,13.5c-0.3,0-0.4,0.2-0.3,0.4c0,0.1,0.2,0.2,0.3,0.2h0.1h0.1c0.2-0.1,0.3-0.2,0.2-0.4
	C22,13.5,21.8,13.4,21.7,13.5z"/>
<path d="M50.1,27.8c-0.2,0.1-0.3,0.2-0.2,0.4v0.1c0,0.1,0.2,0.2,0.3,0.2c0.2,0,0.3-0.1,0.3-0.3v-0.1V28
	C50.5,27.9,50.3,27.8,50.1,27.8z"/>
<path d="M38.9,14.9c-0.1-0.1-0.3,0-0.4,0.1c-0.1,0.1,0,0.3,0.1,0.4l0,0l0.1,0.1h0.1c0.2,0,0.3-0.1,0.3-0.3
	C39.1,15.1,39,15,38.9,14.9L38.9,14.9z"/>
<path d="M37.2,14.2L37.2,14.2c-0.3-0.1-0.4,0-0.5,0.2c-0.1,0.2,0,0.3,0.2,0.4H37h0.1c0.2,0,0.3-0.1,0.3-0.3
	C37.4,14.3,37.4,14.2,37.2,14.2L37.2,14.2z"/>
<path d="M25.5,12.6L25.5,12.6c-0.3,0-0.4,0.2-0.4,0.3c0,0.2,0.1,0.3,0.3,0.3l0,0h0.1c0.2,0,0.3-0.2,0.3-0.3
	C25.9,12.7,25.7,12.6,25.5,12.6L25.5,12.6L25.5,12.6z"/>
<path d="M35.4,13.5L35.4,13.5c-0.3-0.1-0.4,0-0.5,0.2c-0.1,0.2,0,0.3,0.2,0.4l0,0h0.1h0.1c0.2,0,0.3-0.1,0.3-0.3
	C35.6,13.6,35.5,13.5,35.4,13.5z"/>
<path d="M50.7,42.1c0.1,0,0.3-0.1,0.3-0.2v-0.1c0-0.2,0-0.3-0.2-0.4c-0.2,0-0.3,0-0.4,0.2v0.1C50.4,41.8,50.5,42,50.7,42.1
	L50.7,42.1z"/>
<path d="M43.9,18.2c-0.1-0.1-0.3-0.1-0.4,0c-0.1,0.1-0.1,0.3,0,0.4l0.1,0.1c0.1,0.1,0.3,0.1,0.4,0C44.1,18.6,44.1,18.4,43.9,18.2
	C44,18.3,44,18.3,43.9,18.2L43.9,18.2z"/>
<path d="M40.7,15.9c-0.1-0.1-0.3,0-0.4,0.1c-0.1,0.1,0,0.3,0.1,0.4l0.1,0.1c0,0,0.1,0,0.2,0c0.2,0,0.3-0.1,0.3-0.3
	c0-0.1-0.1-0.2-0.1-0.3L40.7,15.9z"/>
<path d="M29.5,12.5L29.5,12.5L29.5,12.5c-0.3,0-0.4,0.1-0.4,0.3c0,0.2,0.1,0.3,0.3,0.3h0.1l0,0c0.2,0,0.3-0.1,0.3-0.3
	C29.8,12.6,29.7,12.5,29.5,12.5z"/>
<path d="M13.2,52.6c-0.1-0.1-0.3-0.1-0.4,0s-0.1,0.3,0,0.4l0.1,0.1c0.1,0.1,0.1,0.1,0.2,0.1c0.2,0,0.3-0.1,0.3-0.3
	c0-0.1,0-0.2-0.1-0.2L13.2,52.6z"/>
<path d="M27.5,12.5L27.5,12.5c-0.3,0-0.4,0.1-0.4,0.3c0,0.2,0.1,0.3,0.3,0.3l0,0h0.1c0.2,0,0.3-0.2,0.3-0.3
	C27.8,12.6,27.7,12.5,27.5,12.5z"/>
<path d="M33.5,13L33.5,13c-0.3,0-0.4,0.1-0.5,0.2l0,0c0,0.2,0.1,0.3,0.2,0.4l0,0h0.1c0,0,0,0,0.1,0c0.2,0,0.3-0.1,0.3-0.3
	C33.7,13.1,33.6,13,33.5,13L33.5,13z"/>
<path d="M31.5,12.7L31.5,12.7c-0.3,0-0.4,0.1-0.4,0.3l0,0c0,0.2,0.1,0.3,0.3,0.3h0.1l0,0c0.2,0,0.3-0.1,0.3-0.3S31.6,12.7,31.5,12.7
	L31.5,12.7z"/>
<path d="M42.3,17c-0.1-0.1-0.3-0.1-0.4,0.1c-0.1,0.1-0.1,0.3,0.1,0.4l0.1,0.1c0.1,0,0.1,0.1,0.2,0.1c0.2,0,0.3-0.1,0.3-0.3
	C42.6,17.2,42.5,17.1,42.3,17L42.3,17z"/>
<path d="M27.4,58.5L27.4,58.5L27.4,58.5c-0.3,0-0.4,0.1-0.4,0.3c0,0.2,0.1,0.3,0.3,0.3h0.1l0,0c0.2,0,0.3-0.1,0.3-0.3
	C27.7,58.6,27.6,58.5,27.4,58.5L27.4,58.5z"/>
<path d="M43.6,53.5c0.1,0,0.2,0,0.2-0.1l0.1-0.1c0.1-0.1,0.2-0.3,0-0.4s-0.3-0.2-0.4,0L43.4,53c-0.1,0.1-0.1,0.3,0,0.4
	C43.4,53.5,43.5,53.5,43.6,53.5z"/>
<path d="M29.3,58.5L29.3,58.5L29.3,58.5c-0.3,0-0.4,0.1-0.4,0.3c0,0.2,0.1,0.3,0.3,0.3l0,0h0.1c0.2,0,0.3-0.1,0.3-0.3
	C29.6,58.6,29.5,58.5,29.3,58.5L29.3,58.5z"/>
<path d="M25.5,58.3L25.5,58.3c-0.3,0-0.4,0.1-0.4,0.3c0,0.2,0.1,0.3,0.3,0.3l0,0h0.1l0,0c0.2,0,0.3-0.1,0.3-0.3
	C25.7,58.5,25.6,58.3,25.5,58.3z"/>
<path d="M19.9,56.8L19.9,56.8c-0.3-0.1-0.4,0-0.5,0.2c-0.1,0.2,0,0.3,0.2,0.4l0,0h0.1h0.1c0.2,0,0.3-0.1,0.3-0.3
	C20.1,57,20,56.9,19.9,56.8L19.9,56.8z"/>
<path d="M23.6,58L23.6,58c-0.3,0-0.4,0.1-0.5,0.2l0,0c0,0.2,0.1,0.3,0.2,0.4l0,0h0.1c0,0,0,0,0.1,0c0.2,0,0.3-0.1,0.3-0.3
	C23.8,58.1,23.7,58,23.6,58L23.6,58z"/>
<path d="M21.7,57.5L21.7,57.5c-0.3-0.1-0.4,0-0.5,0.2c-0.1,0.2,0,0.3,0.2,0.4l0,0h0.1h0.1c0.2,0,0.3-0.1,0.3-0.3
	C21.9,57.6,21.8,57.5,21.7,57.5L21.7,57.5z"/>
<path d="M36.9,56.9L36.9,56.9c-0.3,0.1-0.3,0.2-0.3,0.4c0,0.1,0.2,0.2,0.3,0.2H37h0.1c0.2-0.1,0.2-0.2,0.2-0.4
	C37.2,56.9,37,56.9,36.9,56.9L36.9,56.9L36.9,56.9z"/>
<path d="M31.2,58.4L31.2,58.4c-0.3,0-0.4,0.2-0.3,0.4c0,0.1,0.2,0.2,0.3,0.2c0,0,0,0,0.1,0h0.1c0.2,0,0.3-0.2,0.2-0.4l0,0
	C31.5,58.4,31.4,58.3,31.2,58.4L31.2,58.4z"/>
<path d="M40.3,55.2L40.3,55.2c-0.2,0.1-0.3,0.3-0.2,0.5c0.1,0.1,0.3,0.2,0.4,0.1l0.1-0.1c0.1-0.1,0.2-0.3,0.1-0.4
	C40.7,55.2,40.5,55.1,40.3,55.2L40.3,55.2L40.3,55.2z"/>
<path d="M42,54.1L42,54.1c-0.2,0.2-0.3,0.4-0.2,0.5s0.3,0.2,0.4,0.1l0.1-0.1c0.1-0.1,0.2-0.3,0.1-0.4C42.3,54.1,42.1,54,42,54.1
	L42,54.1z"/>
<path d="M38.7,56.1l-0.2,0.1c-0.2,0.1-0.2,0.3-0.1,0.4c0.1,0.2,0.3,0.2,0.4,0.1l0,0h0.1c0.2-0.1,0.2-0.3,0.1-0.4
	C39,56.1,38.8,56.1,38.7,56.1z"/>
<path d="M33.2,58L33.2,58c-0.3,0-0.4,0.2-0.3,0.4c0,0.1,0.2,0.2,0.3,0.2c0,0,0,0,0.1,0h0.1c0.2,0,0.3-0.2,0.2-0.4l0,0
	C33.5,58.1,33.3,58,33.2,58L33.2,58z"/>
<path d="M18,56c-0.2-0.1-0.3,0-0.4,0.1c-0.1,0.1,0,0.3,0.1,0.4l0,0l0.1,0.1h0.1c0.2,0,0.3-0.1,0.3-0.3C18.2,56.2,18.1,56.1,18,56
	L18,56z"/>
<path d="M35,57.6L35,57.6c-0.3,0-0.4,0.2-0.3,0.4c0,0.1,0.2,0.2,0.3,0.2h0.1h0.1c0.2-0.1,0.3-0.2,0.2-0.4
	C35.4,57.6,35.2,57.5,35,57.6L35,57.6L35,57.6z"/>
<path d="M8.6,24.9l0.1-0.1c0.1-0.1,0-0.3-0.1-0.4c-0.1-0.1-0.3,0-0.4,0.1l0,0l-0.1,0.1c-0.1,0.1,0,0.3,0.1,0.4
	C8.3,25.1,8.5,25,8.6,24.9L8.6,24.9z"/>
<path d="M51.7,37.9L51.7,37.9c0-0.3-0.1-0.4-0.3-0.4c-0.2,0-0.3,0.1-0.3,0.2l0,0v0.1c0,0.2,0.1,0.3,0.3,0.3l0,0
	C51.6,38.2,51.7,38.1,51.7,37.9z"/>
<path d="M51.2,40.2c0.2,0,0.3-0.1,0.3-0.3v-0.1c0-0.2-0.1-0.3-0.2-0.4c-0.2,0-0.3,0.1-0.4,0.2l0,0v0.1C50.8,40,51,40.1,51.2,40.2
	C51.1,40.1,51.1,40.1,51.2,40.2C51.1,40.1,51.2,40.1,51.2,40.2z"/>
<path d="M50.3,43.2c-0.2-0.1-0.3,0-0.4,0.2v0.1c-0.1,0.2,0,0.3,0.2,0.4l0,0h0.1c0.1,0,0.2-0.1,0.3-0.2v-0.1
	C50.6,43.5,50.5,43.3,50.3,43.2z"/>
<path d="M14.8,53.9c-0.1-0.1-0.3-0.1-0.4,0s-0.1,0.3,0,0.4l0.1,0.1c0.1,0.1,0.1,0.1,0.2,0.1c0.2,0,0.3-0.1,0.3-0.3
	c0-0.1,0-0.2-0.1-0.2L14.8,53.9z"/>
<path d="M16.3,55c-0.1-0.1-0.3,0-0.4,0.1c-0.1,0.1-0.1,0.3,0.1,0.4l0.1,0.1c0,0,0.1,0,0.2,0c0.2,0,0.3-0.1,0.3-0.3
	C16.6,55.2,16.5,55.1,16.3,55L16.3,55z"/>
<path d="M26.3,33.7c0.1-0.1,0.1-0.3,0-0.4c-0.1-0.1-0.3-0.1-0.3,0l-0.1,0.1c-0.1,0.1-0.1,0.3,0,0.4l0,0c0,0,0.1,0.1,0.2,0.1
	C26.2,33.8,26.2,33.8,26.3,33.7L26.3,33.7z"/>
<path d="M26.7,38.2c-0.1-0.1-0.3-0.1-0.4,0s-0.1,0.3,0,0.4l0.1,0.1h0.1c0.1,0,0.2-0.1,0.2-0.3C26.8,38.4,26.8,38.3,26.7,38.2
	L26.7,38.2z"/>
<path d="M27.6,32.6c0-0.1-0.2-0.2-0.3-0.2l0,0h-0.1c-0.1,0-0.2,0.2-0.1,0.3s0.2,0.2,0.3,0.1h0.1C27.6,32.9,27.7,32.8,27.6,32.6
	L27.6,32.6z"/>
<path d="M25.3,35.1L25.3,35.1c0.2,0,0.3-0.1,0.3-0.2v-0.1c0-0.1,0-0.3-0.2-0.3s-0.3,0-0.3,0.2l0,0v0.1C25.1,35,25.2,35.1,25.3,35.1
	L25.3,35.1z"/>
<path d="M25.8,37.1c-0.1-0.1-0.2-0.2-0.3-0.1s-0.2,0.2-0.1,0.3v0.1c0.1,0.1,0.2,0.2,0.3,0.1C25.9,37.5,25.9,37.3,25.8,37.1
	L25.8,37.1z"/>
<path d="M25.5,35.8c0-0.1-0.1-0.2-0.2-0.2s-0.2,0.1-0.2,0.2v0.1L25.5,35.8L25.5,35.8z"/>
<path d="M30.6,38L30.6,38c-0.2,0.2-0.2,0.3-0.1,0.4c0.1,0.1,0.2,0.1,0.3,0l0.1-0.1c0.1-0.1,0.1-0.3,0-0.4
	C30.8,37.9,30.7,37.9,30.6,38L30.6,38L30.6,38z"/>
<path d="M28.9,32.3L28.9,32.3l-0.1,0.5h0.1l0,0c0.1,0,0.2-0.1,0.2-0.3C29.1,32.4,29,32.3,28.9,32.3L28.9,32.3z"/>
<path d="M30.4,32.9L30.4,32.9c-0.2-0.1-0.4-0.1-0.4,0c-0.1,0.1,0,0.3,0.1,0.3l0,0h0.1c0.1,0.1,0.3,0,0.3-0.1l0,0
	C30.6,33.1,30.5,32.9,30.4,32.9L30.4,32.9z"/>
<path d="M29.4,38.7L29.4,38.7c-0.2,0.1-0.3,0.2-0.3,0.3s0.2,0.2,0.3,0.2l0,0h0.1c0.1,0,0.2-0.2,0.2-0.3S29.5,38.6,29.4,38.7
	L29.4,38.7z"/>
<path d="M31.7,35.2c-0.1,0-0.2,0.1-0.2,0.3l0,0v0.1c0,0.1,0.1,0.2,0.2,0.2l0,0c0.1,0,0.2-0.1,0.2-0.3v-0.1
	C32,35.3,31.9,35.2,31.7,35.2z"/>
<path d="M31.6,36.7c-0.1,0-0.3,0-0.3,0.1l0,0v0.1c-0.1,0.1,0,0.3,0.1,0.3l0,0h0.1c0.1,0,0.2-0.1,0.2-0.2v-0.1
	C31.8,36.9,31.8,36.7,31.6,36.7z"/>
<path d="M31.4,34.4c0.1-0.1,0.2-0.2,0.1-0.3v-0.2c-0.1-0.1-0.3-0.1-0.4-0.1C31,33.9,30.9,34,31,34.1l0,0v0.1c0,0.1,0.1,0.1,0.2,0.1
	C31.4,34.4,31.4,34.4,31.4,34.4z"/>
<path d="M28,38.8L28,38.8c-0.2,0-0.4,0-0.4,0.2l0,0c0,0.1,0.1,0.3,0.2,0.3h0.1l0,0c0.1,0,0.2-0.1,0.2-0.3
	C28.2,38.9,28.1,38.8,28,38.8L28,38.8z"/>
<path d="M28.5,29.9c-3.3,0-5.9,2.6-5.9,5.9s2.6,5.9,5.9,5.9s5.9-2.6,5.9-5.9l0,0C34.4,32.5,31.8,29.9,28.5,29.9z M28.5,41.2
	c-3,0-5.4-2.4-5.4-5.4s2.4-5.4,5.4-5.4s5.4,2.4,5.4,5.4l0,0C33.9,38.8,31.5,41.2,28.5,41.2z"/>
<path d="M44.5,10.7h-32c-0.4,0-0.7,0.3-0.7,0.7v35.5c0,0.1,0,0.1,0,0.2v13.1c0,0.4,0.3,0.7,0.7,0.7h32c0.4,0,0.7-0.3,0.7-0.7V11.4
	C45.2,11,44.9,10.7,44.5,10.7z M44.7,60.2c0,0.1-0.1,0.2-0.2,0.2h-32c-0.1,0-0.2-0.1-0.2-0.2V47.8c6.7,9,19.3,10.8,28.2,4.2
	c1.6-1.2,3-2.6,4.1-4.1L44.7,60.2z M44.7,47c-6.2,8.9-18.4,11.1-27.3,5c-1.9-1.3-3.6-3-5-5V24.6c6.2-8.9,18.4-11.1,27.3-5
	c1.9,1.3,3.5,2.9,4.8,4.7l0.2,0.2V47z M44.7,23.8c-6.7-9-19.3-10.8-28.2-4.2c-1.6,1.2-3,2.6-4.1,4.1V11.4c0-0.1,0.1-0.2,0.2-0.2h32
	c0.1,0,0.2,0.1,0.2,0.2L44.7,23.8L44.7,23.8z"/>
<path d="M25.2,6.5h7.2c0.4,0,0.7-0.3,0.7-0.7V5.6c0-0.4-0.3-0.7-0.7-0.7h-7.2c-0.4,0-0.7,0.3-0.7,0.7v0.2
	C24.6,6.2,24.8,6.5,25.2,6.5z M25.1,5.7c0-0.1,0.1-0.2,0.2-0.2h7.2c0.1,0,0.2,0.1,0.2,0.2v0.2c0,0.1-0.1,0.2-0.2,0.2h-7.2
	c-0.1,0-0.2-0.1-0.2-0.2V5.7z"/>
<path d="M20.6,6.5h0.2c0.4,0,0.7-0.3,0.7-0.7V5.6c0-0.4-0.3-0.7-0.7-0.7h-0.2c-0.4,0-0.7,0.3-0.7,0.7v0.2
	C19.9,6.2,20.2,6.5,20.6,6.5z M20.4,5.7c0-0.1,0.1-0.2,0.2-0.2h0.2c0.1,0,0.2,0.1,0.2,0.2v0.2c0,0.1-0.1,0.2-0.2,0.2h-0.2
	c-0.1,0-0.2-0.1-0.2-0.2V5.7z"/>
<path d="M28.7,62.2c-2.2,0-3.9,1.8-3.9,3.9s1.8,3.9,3.9,3.9s3.9-1.8,3.9-3.9l0,0C32.6,64,30.9,62.2,28.7,62.2z M28.7,69.5
	c-1.9,0-3.4-1.5-3.4-3.4s1.5-3.4,3.4-3.4s3.4,1.5,3.4,3.4l0,0C32.1,68,30.6,69.5,28.7,69.5z"/>
<path d="M57,35.8c0-0.1-0.1-0.2-0.2-0.2h-8.1c0-3-0.7-6-2.1-8.7V4.2c0-2.3-1.9-4.2-4.2-4.2H14.6c-2.3,0-4.2,1.9-4.2,4.2v22.7
	c-1.3,2.7-2,5.7-2.1,8.7H0.2c-0.1,0-0.2,0.1-0.2,0.2S0.1,36,0.2,36h8.1c0,3,0.7,6,2.1,8.7v22.7c0,2.3,1.9,4.2,4.2,4.2h27.8
	c2.3,0,4.2-1.9,4.2-4.2V44.7c1.3-2.7,2-5.7,2.1-8.7h8.1C56.9,36,57,35.9,57,35.8z M10.4,43.5c-1-2.4-1.6-4.9-1.6-7.5h1.6V43.5z
	 M10.4,35.6H8.8c0-2.6,0.6-5.1,1.6-7.5V35.6z M46.1,67.4c0,2-1.6,3.7-3.7,3.7H14.6c-2,0-3.7-1.6-3.7-3.7V4.2c0-2,1.6-3.7,3.7-3.7
	h27.8c2,0,3.7,1.6,3.7,3.7C46.1,4.2,46.1,67.4,46.1,67.4z M46.6,43.5V36h1.6C48.1,38.6,47.6,41.2,46.6,43.5z M46.6,35.6v-7.5
	c1,2.4,1.6,4.9,1.6,7.5H46.6z"/>
</svg>
